# xmcd
#
# Track frame offsets:
#	150
#	18280
#	40705
#	58025
#
# Disc length: 1052 seconds
#
# Revision: 0
# Processed by: cddbd v1.4PL0 Copyright (c) Steve Scherf et al.
# Submitted via: audiograbber 1.80
#
DISCID=27041a04
DTITLE=Mis-Teeq - n/a
DYEAR=1900
DGENRE=
TTITLE0=Scandalous
TTITLE1=Scandalous (Oracle Remix)
TTITLE2=Scandalous (Blacksmith Radio Remix)
TTITLE3=Scandalous (Jazzwad Remix)
EXTD=
EXTT0=
EXTT1=
EXTT2=
EXTT3=
PLAYORDER=
